<svg width="58" height="58" viewBox="0 0 58 58" fill="none" xmlns="http://www.w3.org/2000/svg">
<rect x="0.5" y="0.5" width="57" height="57" rx="12.5" fill="#D8CCAD" fill-opacity="0.5" stroke="#343348"/>
<rect x="38.2712" y="7" width="5.71519" height="21" fill="#D9D9D9"/>
<path d="M38.1267 7H43.9999V27.9516H38.1267V7Z" fill="#4F4E4E"/>
<rect x="38.1267" y="8.12598" width="5.87318" height="1.35172" fill="#F2B13D"/>
<rect x="38.1267" y="25.0234" width="5.87318" height="1.577" fill="#F2B13D"/>
<rect x="30.562" y="7" width="5.71519" height="21" fill="#D9D9D9"/>
<path d="M30.4175 7H36.2907V27.9516H30.4175V7Z" fill="#4F4E4E"/>
<rect x="30.4175" y="8.12598" width="5.87318" height="1.35172" fill="#F2B13D"/>
<rect x="30.4175" y="25.0234" width="5.87318" height="1.577" fill="#F2B13D"/>
<rect x="22.853" y="7" width="5.71519" height="21" fill="#D9D9D9"/>
<path d="M22.709 7H28.5822V27.9516H22.709V7Z" fill="#4F4E4E"/>
<rect x="22.709" y="8.12598" width="5.87318" height="1.35172" fill="#F2B13D"/>
<rect x="22.709" y="25.0234" width="5.87318" height="1.577" fill="#F2B13D"/>
<rect x="15.1445" y="7" width="5.71519" height="21" fill="#D9D9D9"/>
<path d="M15 7H20.8732V27.9516H15V7Z" fill="#4F4E4E"/>
<rect x="15" y="8.12598" width="5.87318" height="1.35172" fill="#F2B13D"/>
<rect x="15" y="25.0234" width="5.87318" height="1.577" fill="#F2B13D"/>
<path d="M8.40004 34.74V48H12.667C16.288 48 18.804 45.943 18.804 41.217C18.804 36.763 16.509 34.74 12.837 34.74H8.40004ZM11.46 45.79V36.95H12.514C14.52 36.95 15.676 38.208 15.676 41.37C15.676 44.6 14.52 45.79 12.837 45.79H11.46ZM24.7442 38.14C22.0582 38.14 20.0012 39.67 20.0012 43.291C20.0012 46.657 22.1092 48.17 24.7442 48.17C27.4302 48.17 29.4872 46.64 29.4872 43.019C29.4872 39.653 27.3792 38.14 24.7442 38.14ZM24.7442 46.045C23.4862 46.045 22.9762 44.77 22.9762 43.189C22.9762 41.166 23.5542 40.265 24.7442 40.265C26.0022 40.265 26.5122 41.54 26.5122 43.121C26.5122 45.127 25.9342 46.045 24.7442 46.045Z" fill="#4F4E4E"/>
<path d="M31.36 34.74V48H35.627C39.248 48 41.764 45.943 41.764 41.217C41.764 36.763 39.469 34.74 35.797 34.74H31.36ZM34.42 45.79V36.95H35.474C37.48 36.95 38.636 38.208 38.636 41.37C38.636 44.6 37.48 45.79 35.797 45.79H34.42ZM47.7042 38.14C45.0182 38.14 42.9612 39.67 42.9612 43.291C42.9612 46.657 45.0692 48.17 47.7042 48.17C50.3902 48.17 52.4472 46.64 52.4472 43.019C52.4472 39.653 50.3392 38.14 47.7042 38.14ZM47.7042 46.045C46.4462 46.045 45.9362 44.77 45.9362 43.189C45.9362 41.166 46.5142 40.265 47.7042 40.265C48.9622 40.265 49.4722 41.54 49.4722 43.121C49.4722 45.127 48.8942 46.045 47.7042 46.045Z" fill="#F2B13D"/>
</svg>
