<svg width="58" height="58" viewBox="0 0 58 58" fill="none" xmlns="http://www.w3.org/2000/svg">
<rect x="0.5" y="0.5" width="57" height="57" rx="12.5" fill="#D8CCAD" stroke="#343348"/>
<rect x="38.2712" y="9" width="5.71519" height="21" fill="#D9D9D9"/>
<path d="M38.1267 9H43.9999V29.9516H38.1267V9Z" fill="#4F4E4E"/>
<rect x="38.1267" y="10.126" width="5.87318" height="1.35172" fill="#F2B13D"/>
<rect x="38.1267" y="27.0234" width="5.87318" height="1.577" fill="#F2B13D"/>
<rect x="30.562" y="9" width="5.71519" height="21" fill="#D9D9D9"/>
<path d="M30.4175 9H36.2907V29.9516H30.4175V9Z" fill="#4F4E4E"/>
<rect x="30.4175" y="10.126" width="5.87318" height="1.35172" fill="#F2B13D"/>
<rect x="30.4175" y="27.0234" width="5.87318" height="1.577" fill="#F2B13D"/>
<rect x="22.853" y="9" width="5.71519" height="21" fill="#D9D9D9"/>
<path d="M22.709 9H28.5822V29.9516H22.709V9Z" fill="#4F4E4E"/>
<rect x="22.709" y="10.126" width="5.87318" height="1.35172" fill="#F2B13D"/>
<rect x="22.709" y="27.0234" width="5.87318" height="1.577" fill="#F2B13D"/>
<rect x="15.1445" y="9" width="5.71519" height="21" fill="#D9D9D9"/>
<path d="M15 9H20.8732V29.9516H15V9Z" fill="#4F4E4E"/>
<rect x="15" y="10.126" width="5.87318" height="1.35172" fill="#F2B13D"/>
<rect x="15" y="27.0234" width="5.87318" height="1.577" fill="#F2B13D"/>
<path d="M9.67063 35.52V48H13.6866C17.0946 48 19.4626 46.064 19.4626 41.616C19.4626 37.424 17.3026 35.52 13.8466 35.52H9.67063ZM12.5506 45.92V37.6H13.5426C15.4306 37.6 16.5186 38.784 16.5186 41.76C16.5186 44.8 15.4306 45.92 13.8466 45.92H12.5506ZM25.0534 38.72C22.5254 38.72 20.5894 40.16 20.5894 43.568C20.5894 46.736 22.5734 48.16 25.0534 48.16C27.5814 48.16 29.5174 46.72 29.5174 43.312C29.5174 40.144 27.5334 38.72 25.0534 38.72ZM25.0534 46.16C23.8694 46.16 23.3894 44.96 23.3894 43.472C23.3894 41.568 23.9334 40.72 25.0534 40.72C26.2374 40.72 26.7174 41.92 26.7174 43.408C26.7174 45.296 26.1734 46.16 25.0534 46.16Z" fill="#4F4E4E"/>
<path d="M31.28 35.52V48H35.296C38.704 48 41.072 46.064 41.072 41.616C41.072 37.424 38.912 35.52 35.456 35.52H31.28ZM34.16 45.92V37.6H35.152C37.04 37.6 38.128 38.784 38.128 41.76C38.128 44.8 37.04 45.92 35.456 45.92H34.16ZM46.6628 38.72C44.1348 38.72 42.1988 40.16 42.1988 43.568C42.1988 46.736 44.1828 48.16 46.6628 48.16C49.1908 48.16 51.1267 46.72 51.1267 43.312C51.1267 40.144 49.1428 38.72 46.6628 38.72ZM46.6628 46.16C45.4788 46.16 44.9988 44.96 44.9988 43.472C44.9988 41.568 45.5428 40.72 46.6628 40.72C47.8468 40.72 48.3268 41.92 48.3268 43.408C48.3268 45.296 47.7828 46.16 46.6628 46.16Z" fill="#ECB140"/>
</svg>
