<svg width="897" height="248" viewBox="0 0 897 248" fill="none" xmlns="http://www.w3.org/2000/svg">
<path d="M216.721 69.1215V168.962H248.849C276.113 168.962 295.057 153.474 295.057 117.89C295.057 84.3535 277.777 69.1215 250.129 69.1215H216.721ZM239.761 152.322V85.7615H247.697C262.801 85.7615 271.505 95.2335 271.505 119.042C271.505 143.362 262.801 152.322 250.129 152.322H239.761ZM339.783 94.7215C319.559 94.7215 304.071 106.242 304.071 133.506C304.071 158.85 319.943 170.242 339.783 170.242C360.007 170.242 375.495 158.722 375.495 131.458C375.495 106.114 359.623 94.7215 339.783 94.7215ZM339.783 154.242C330.311 154.242 326.471 144.642 326.471 132.738C326.471 117.506 330.823 110.722 339.783 110.722C349.255 110.722 353.095 120.322 353.095 132.226C353.095 147.33 348.743 154.242 339.783 154.242ZM389.596 69.1215V168.962H421.724C448.988 168.962 467.932 153.474 467.932 117.89C467.932 84.3535 450.652 69.1215 423.004 69.1215H389.596ZM412.636 152.322V85.7615H420.572C435.676 85.7615 444.38 95.2335 444.38 119.042C444.38 143.362 435.676 152.322 423.004 152.322H412.636ZM512.658 94.7215C492.434 94.7215 476.946 106.242 476.946 133.506C476.946 158.85 492.818 170.242 512.658 170.242C532.882 170.242 548.37 158.722 548.37 131.458C548.37 106.114 532.498 94.7215 512.658 94.7215ZM512.658 154.242C503.186 154.242 499.346 144.642 499.346 132.738C499.346 117.506 503.698 110.722 512.658 110.722C522.13 110.722 525.97 120.322 525.97 132.226C525.97 147.33 521.618 154.242 512.658 154.242Z" fill="#4F4E4E"/>
<path d="M628.007 69.1215L618.663 108.674C616.359 118.53 614.311 132.866 613.799 142.594H612.519C611.879 132.866 609.703 118.786 607.143 108.546L597.543 69.1215H562.471V168.962H583.591V129.922C583.591 115.97 583.335 102.53 582.311 88.9615H583.591L603.047 168.962H621.863L640.935 88.9615H642.215C641.063 102.658 640.807 116.226 640.807 129.922V168.962H661.927V69.1215H628.007ZM711.658 94.7215C691.434 94.7215 675.946 106.242 675.946 133.506C675.946 158.85 691.818 170.242 711.658 170.242C731.882 170.242 747.37 158.722 747.37 131.458C747.37 106.114 731.498 94.7215 711.658 94.7215ZM711.658 154.242C702.186 154.242 698.346 144.642 698.346 132.738C698.346 117.506 702.698 110.722 711.658 110.722C721.13 110.722 724.97 120.322 724.97 132.226C724.97 147.33 720.618 154.242 711.658 154.242ZM814.463 69.1215H777.983L752.511 168.962H774.399L780.031 145.538H810.623L816.383 168.962H840.063L814.463 69.1215ZM806.271 127.618H784.383L792.191 96.0015C793.343 91.5215 794.367 86.9135 795.135 82.3055H795.775C796.415 86.9135 797.439 91.5215 798.591 96.0015L806.271 127.618Z" fill="#F2B13D"/>
<rect x="154.99" y="63.447" width="25.7846" height="112.391" fill="#D9D9D9"/>
<path d="M154.339 63.447H180.836V175.579H154.339V63.447Z" fill="#4F4E4E"/>
<rect x="154.339" y="69.4757" width="26.4974" height="7.23435" fill="#F2B13D"/>
<rect x="154.339" y="159.905" width="26.4974" height="8.44007" fill="#F2B13D"/>
<rect x="120.21" y="63.447" width="25.7846" height="112.391" fill="#D9D9D9"/>
<path d="M119.559 63.447H146.057V175.579H119.559V63.447Z" fill="#4F4E4E"/>
<rect x="119.559" y="69.4757" width="26.4974" height="7.23435" fill="#F2B13D"/>
<rect x="119.559" y="159.905" width="26.4974" height="8.44007" fill="#F2B13D"/>
<rect x="85.4304" y="63.447" width="25.7846" height="112.391" fill="#D9D9D9"/>
<path d="M84.7797 63.447H111.277V175.579H84.7797V63.447Z" fill="#4F4E4E"/>
<rect x="84.7797" y="69.4757" width="26.4974" height="7.23435" fill="#F2B13D"/>
<rect x="84.7797" y="159.905" width="26.4974" height="8.44007" fill="#F2B13D"/>
<rect x="50.6509" y="63.447" width="25.7846" height="112.391" fill="#D9D9D9"/>
<path d="M50 63.447H76.4974V175.579H50V63.447Z" fill="#4F4E4E"/>
<rect x="50" y="69.4757" width="26.4974" height="7.23435" fill="#F2B13D"/>
<rect x="50" y="159.905" width="26.4974" height="8.44007" fill="#F2B13D"/>
</svg>
