<svg width="843" height="191" viewBox="0 0 843 191" fill="none" xmlns="http://www.w3.org/2000/svg">
<path d="M181.803 44.16V144H213.931C241.195 144 260.139 128.512 260.139 92.928C260.139 59.392 242.859 44.16 215.211 44.16H181.803ZM204.843 127.36V60.8H212.779C227.883 60.8 236.587 70.272 236.587 94.08C236.587 118.4 227.883 127.36 215.211 127.36H204.843ZM304.865 69.76C284.641 69.76 269.153 81.28 269.153 108.544C269.153 133.888 285.025 145.28 304.865 145.28C325.089 145.28 340.576 133.76 340.576 106.496C340.576 81.152 324.705 69.76 304.865 69.76ZM304.865 129.28C295.393 129.28 291.553 119.68 291.553 107.776C291.553 92.544 295.905 85.76 304.865 85.76C314.337 85.76 318.177 95.36 318.177 107.264C318.177 122.368 313.825 129.28 304.865 129.28ZM354.678 44.16V144H386.806C414.07 144 433.014 128.512 433.014 92.928C433.014 59.392 415.734 44.16 388.086 44.16H354.678ZM377.718 127.36V60.8H385.654C400.758 60.8 409.462 70.272 409.462 94.08C409.462 118.4 400.758 127.36 388.086 127.36H377.718ZM477.74 69.76C457.516 69.76 442.028 81.28 442.028 108.544C442.028 133.888 457.9 145.28 477.74 145.28C497.964 145.28 513.451 133.76 513.451 106.496C513.451 81.152 497.58 69.76 477.74 69.76ZM477.74 129.28C468.268 129.28 464.428 119.68 464.428 107.776C464.428 92.544 468.78 85.76 477.74 85.76C487.212 85.76 491.052 95.36 491.052 107.264C491.052 122.368 486.7 129.28 477.74 129.28Z" fill="#4F4E4E"/>
<path d="M593.089 44.16L583.745 83.712C581.441 93.568 579.393 107.904 578.881 117.632H577.601C576.961 107.904 574.785 93.824 572.225 83.584L562.625 44.16H527.553V144H548.673V104.96C548.673 91.008 548.417 77.568 547.393 64H548.673L568.129 144H586.945L606.017 64H607.297C606.145 77.696 605.889 91.264 605.889 104.96V144H627.009V44.16H593.089ZM676.74 69.76C656.516 69.76 641.028 81.28 641.028 108.544C641.028 133.888 656.9 145.28 676.74 145.28C696.964 145.28 712.451 133.76 712.451 106.496C712.451 81.152 696.58 69.76 676.74 69.76ZM676.74 129.28C667.268 129.28 663.428 119.68 663.428 107.776C663.428 92.544 667.78 85.76 676.74 85.76C686.212 85.76 690.052 95.36 690.052 107.264C690.052 122.368 685.7 129.28 676.74 129.28ZM779.545 44.16H743.065L717.593 144H739.481L745.113 120.576H775.705L781.465 144H805.145L779.545 44.16ZM771.353 102.656H749.465L757.273 71.04C758.425 66.56 759.449 61.952 760.217 57.344H760.857C761.497 61.952 762.521 66.56 763.673 71.04L771.353 102.656Z" fill="#F2B13D"/>
<rect x="108.331" y="48.2136" width="26.6052" height="94.2637" fill="#D9D9D9"/>
<path d="M107.659 48.2136H135V142.26H107.659V48.2136Z" fill="#4F4E4E"/>
<rect x="107.659" y="53.2699" width="27.3407" height="6.06752" fill="#F2B13D"/>
<rect x="107.659" y="129.114" width="27.3407" height="7.07877" fill="#F2B13D"/>
<rect x="72.4443" y="48.2136" width="26.6052" height="94.2637" fill="#D9D9D9"/>
<path d="M71.7729 48.2136H99.1135V142.26H71.7729V48.2136Z" fill="#4F4E4E"/>
<rect x="71.7729" y="53.2699" width="27.3407" height="6.06752" fill="#F2B13D"/>
<rect x="71.7729" y="129.114" width="27.3407" height="7.07877" fill="#F2B13D"/>
<rect x="36.5581" y="48.2136" width="26.6052" height="94.2637" fill="#D9D9D9"/>
<path d="M35.8865 48.2136H63.2272V142.26H35.8865V48.2136Z" fill="#4F4E4E"/>
<rect x="35.8865" y="53.2699" width="27.3407" height="6.06752" fill="#F2B13D"/>
<rect x="35.8865" y="129.114" width="27.3407" height="7.07877" fill="#F2B13D"/>
<rect x="0.67157" y="48.2136" width="26.6052" height="94.2637" fill="#D9D9D9"/>
<path d="M0 48.2136H27.3407V142.26H0V48.2136Z" fill="#4F4E4E"/>
<rect y="53.2699" width="27.3407" height="6.06752" fill="#F2B13D"/>
<rect y="129.114" width="27.3407" height="7.07877" fill="#F2B13D"/>
</svg>
